@startuml frontEndDiagrams

package "Container Components" {
    class App {
        --
        render()
    }
    class AppRoutes
    class DataProviders {
        cookies
        theme
        toasts
        api
    }
    class Layout

    App *-- DataProviders
    DataProviders *-- Layout
    Layout *-- AppRoutes
}
package Screens {
    class HomePage {
        allEvents
    }
    class CreateEventPage
    class ErrorPage {
        errorMessage
    }
    class HostingPage {
        createEventPageLink
    }
    class SearchPage {
        searchResults
    }
    class UsageTermsPage
}

AppRoutes *-- HomePage
AppRoutes *-- SearchPage
AppRoutes *-- UsageTermsPage
AppRoutes *-- ErrorPage
AppRoutes *-- SearchPage
AppRoutes *-- HostingPage
AppRoutes *-- CreateEventPage

package Navigation {
    class NavBarLeft {
        width
        homepageLink
        hostingpageLink
    }

    class NavBarTop {
        homepageLink
        searchBar
        signupButton
        loginButton
        logoutButton
        --
        search()
        openLoginModal()
        openSignupModal()
        logOut()
    }
    class Footer {
        termsAndConditionsLink
    }
}


package Generic {
    class GenericModal {
        name
        title
        body
        id
        onClose
        open
        disabled
        showExitButton
    }
    
}

package Accounts {
    class LoginModal
    class SignupModal 
    
}

package Events {
    class SidebarRight {
        width
    }

    class MyEventsStack {
        registeredEvents
    }
    class EventDescription {
        eventData
        --
        register()
        cancelRegistration()
        cancelEvent()
    }
    class EventCard {
        eventData
        --
        showEventDescription()
    }
    class MinimizedEventCard
    class EventsGrid {
        events
    }
    
}

package Forms {
    class CreateEventForm {
        eventData
        --
        createEvent()
    }
    class SignupForm {
        termsAndConditionsLink
        --
        signUp()
    }

    class LoginForm {
        termsAndConditionsLink
        --
        logIn()
    }
}
package "Form Components" {
    class DatePickerField
    class FileInputField
    class InputField
    class NumberField
    class RadioGroupField
    class TimePickerField
}

Layout *-- NavBarLeft
Layout *-- NavBarTop
Layout *-- Footer


GenericModal <|-- LoginModal
GenericModal <|-- SignupModal

NavBarTop o-- LoginModal
NavBarTop o-- SignupModal



EventCard <|-- MinimizedEventCard
MyEventsStack *-- MinimizedEventCard

SidebarRight *-- MyEventsStack
SidebarRight *-- EventDescription


EventsGrid *-- EventCard

HomePage *-- SidebarRight
HomePage *-- EventsGrid

SearchPage *-- SidebarRight
SearchPage *-- EventsGrid



SignupModal *-- SignupForm
LoginModal *-- LoginForm
CreateEventPage *-- CreateEventForm


CreateEventForm *-- DatePickerField
CreateEventForm *-- FileInputField
CreateEventForm *-- InputField
CreateEventForm *-- NumberField
CreateEventForm *-- RadioGroupField
CreateEventForm *-- TimePickerField

SignupForm *-- InputField

LoginForm *-- InputField

NavBarTop *-- InputField
@enduml